PathFileType	4	(X/Y/Z)	Patient4_TMGait_0pt3_03_left_02.trc.trc
DataRate	CameraRate	NumFrames	NumMarkers	Units	OrigDataRate	OrigDataStartFrame	OrigNumFrames
53.030303030303	53.030303030303	4	33	mm	53.030303030303	71	       141
Frame#	Time	Sacral			L.Shoulder			Chest			R.Shoulder			Neck			R.ASIS			L.ASIS			R.Thigh.Superior			R.Thigh.Lateral			R.Thigh.Inferior			R.Patella			L.Thigh.Superior			L.Thigh.Lateral			L.Thigh.Inferior			L.Patella			L.Shank.Superior			L.Shank.Lateral			L.Shank.Inferior			R.Shank.Superior			R.Shank.Lateral			R.Shank.Inferior			R.Heel			R.Midfoot.Superior			R.Midfoot.Lateral			R.Toe			L.Heel			L.Midfoot.Lateral			L.Midfoot.Superior			L.Toe			L.Elbow			L.Wrist			R.Elbow			R.Wrist			
		X1	Y1	Z1	X2	Y2	Z2	X3	Y3	Z3	X4	Y4	Z4	X5	Y5	Z5	X6	Y6	Z6	X7	Y7	Z7	X8	Y8	Z8	X9	Y9	Z9	X10	Y10	Z10	X11	Y11	Z11	X12	Y12	Z12	X13	Y13	Z13	X14	Y14	Z14	X15	Y15	Z15	X16	Y16	Z16	X17	Y17	Z17	X18	Y18	Z18	X19	Y19	Z19	X20	Y20	Z20	X21	Y21	Z21	X22	Y22	Z22	X23	Y23	Z23	X24	Y24	Z24	X25	Y25	Z25	X26	Y26	Z26	X27	Y27	Z27	X28	Y28	Z28	X29	Y29	Z29	X30	Y30	Z30	X31	Y31	Z31	X32	Y32	Z32	X33	Y33	Z33	

71	3.990000000000	783.122925595820	1002.887815134680	422.391921604746	1009.153404232667	1428.641967799679	276.371026701617	1080.699306720116	1349.874820806381	448.233062109087	975.812574423542	1423.581979449188	610.102726111416	972.595651751162	1486.386370610381	433.928977208476	997.818361312851	929.904469990648	564.010806163656	1013.957015700296	953.481917559642	289.126369849075	1073.131419394227	757.575925922073	531.156695628691	1025.157668880741	638.327692061412	606.228216042798	1111.081517742371	597.382283054887	525.580310981402	1137.578713916389	505.279105764953	546.365155236941	1028.302566691119	726.315818625393	329.004803792243	934.885485656999	619.637216916815	255.727542782255	994.189844046925	533.362969996894	332.757069522572	983.764539516840	462.520518922133	339.860962047122	941.135799862241	395.926468237224	325.085645531435	837.337390507684	301.173404478584	261.595685025731	855.259540478776	182.434496276213	334.644698529484	1102.020749844602	416.247955364547	563.531642574203	1024.985176589240	321.857159159084	636.029146908591	1069.166952521547	219.312945393154	587.252833273988	935.005922119153	47.481114401775	574.742819390894	1106.989627100046	107.515042088149	606.273088675511	1022.062365314120	39.889287159164	644.648498105734	1227.721883900851	61.548338029397	627.470835945655	701.415066956939	39.625761786551	360.639727450309	778.944940217310	35.571822585964	284.315410222960	863.051452112436	95.144762706970	316.710346856369	990.925052764681	40.132971057631	291.701174068438	1090.914787106486	1106.251792696761	125.629478442808	1335.352074654888	1031.190369389448	166.527950878321	818.721216164575	1106.283769420039	689.251385472974	827.209063563159	843.893532764806	678.225365189409	
72	4.008857142857	784.181255556047	1001.307456978095	427.503925837104	1009.990088332092	1427.040141345536	282.031402744526	1081.414509135225	1348.569721205864	454.105969725096	976.223354136475	1422.514702596025	615.711824942080	973.157641327051	1485.071874667568	439.400602492293	998.353724897953	928.348378679027	569.864099665679	1015.575417372084	952.232525544392	294.846601422958	1073.426872941651	755.419394618916	537.733564058248	1023.701164738191	636.004404678016	611.328537861709	1110.676050095834	595.329468443578	531.869762200702	1136.195942446348	503.934455006133	551.650770628559	1027.814974753168	724.472004709398	333.489441618369	932.998207215029	619.258228687705	259.063867247080	991.139651572985	531.856728382875	335.391881474856	979.747282438902	461.095812628988	342.034960972490	936.971851919220	395.045266675932	326.860290481858	832.479251524314	301.219925843842	262.862005074232	849.900472453424	182.015427400241	335.310437574844	1102.163498954312	414.319927667588	567.699439447241	1026.714461364249	318.293648082102	639.773517500245	1071.642551589043	216.836494546276	589.480892398640	938.899458412303	44.674013030446	576.297970509587	1110.438317817823	105.503605335775	607.269853294465	1026.094546782786	37.555814219353	645.918844521381	1231.519188013624	60.149006245640	627.894936433258	695.661666797657	39.479171657618	360.634704090149	773.198181963853	35.491707327815	284.305514448805	857.293892498368	95.124298625871	316.837867123901	985.179216367268	40.165721604342	291.752928192590	1094.850535017800	1105.765377379199	131.375980090056	1343.127947133449	1047.871129636229	172.948772762527	821.331672131560	1103.625799978325	693.697497576807	834.863823613193	841.346688366085	681.003199901000	
73	4.027714285714	785.448487730829	999.386443359139	432.899034834707	1010.692257457052	1425.153296521327	287.954054415250	1082.210902443233	1347.050620959077	460.199355383754	976.797414613518	1421.120350989090	621.649254250830	973.719381913621	1483.500477844610	445.155763142897	999.265786261536	926.476039247010	575.924675819657	1017.392062584129	950.793718049988	300.814649103114	1074.355439466657	753.151059155895	544.122435029822	1022.996095191896	633.425954194992	615.940340289413	1111.083784175079	593.138302445151	537.639059611434	1135.561547573991	502.083462856636	556.234854150415	1028.045619662856	722.566586208272	338.011944132021	931.879286264963	618.666647939642	262.707165051557	989.142563639920	530.248193633219	338.265926130403	976.900275145260	459.452216949637	344.463196723828	933.697302559451	393.946954436653	328.908445157977	828.282206830168	301.385699375732	264.335480648537	844.901344997002	181.598797347526	336.030578593291	1102.339335006166	411.992182712414	571.107257957269	1027.637860651886	315.092252832664	642.615159926331	1072.283437320226	214.418633796766	590.809413887259	939.446807763898	43.136042754573	576.843167639112	1110.810628991165	103.584335485862	607.447199926301	1026.516454293698	36.258115880443	646.492723354390	1231.832055273394	58.097132021869	628.155010989557	689.968316085016	39.617648557767	360.615382853512	767.522549440074	35.572642025204	284.306950023286	851.662612676732	95.164291939792	316.964243320520	979.491320040988	40.121391084595	291.782610822569	1098.352613736839	1104.653787404911	137.622974672675	1349.360504815257	1063.333414707592	179.286487029050	825.049617167066	1100.174577821305	698.789854049311	843.407703954272	838.171724779992	685.084091421585	
74	4.046571428571	786.916654802144	997.396715703727	438.542710080177	1011.338426991715	1423.224674310932	294.096604289415	1083.106839265216	1345.535114967614	466.483411751172	977.530428882994	1419.641295240054	627.851815829289	974.293622297081	1481.895897429343	451.145788055798	1000.534755544340	924.544075767602	582.163620332504	1019.362105364853	949.360086613902	307.005657230701	1075.808718352651	750.981880974223	550.259108863238	1022.974725468576	630.830588766405	620.106579624421	1112.125857149731	590.994337921853	542.846154241955	1135.568664569559	499.957956526011	560.110335779394	1028.820157861315	720.740927562433	342.564337771136	931.334802104927	618.031093015034	266.616825533732	987.983159611904	528.677491750047	341.339218704330	975.010660639844	457.746016461505	347.091035424143	931.138267229685	392.803762852059	331.176821934824	824.622609310627	301.785512514298	265.992711889434	840.231954522651	181.305274344523	336.785010386252	1102.536850897707	409.481588347110	573.806341115449	1027.903602853427	312.307524622321	644.700217840340	1071.402023063571	212.135957219801	591.395511005635	937.238425314623	42.559161651737	576.659262049183	1108.663038149010	101.823936208846	606.990027415100	1024.025159107120	35.767690926579	646.555270182220	1229.380106116940	55.653668075986	628.272097519805	684.352362830822	40.137917943625	360.577243755715	761.932807048786	35.873149108098	284.320115661633	846.196186792279	95.291130491311	317.074664482347	973.870889088664	39.994084045648	291.788678003898	1101.337753671774	1103.098147701750	144.373152434629	1354.072015461515	1077.341551603446	185.567295726906	829.718102798959	1096.282027744787	704.468968899043	852.637639401592	834.697395471850	690.420787559003	
